<?xml version="1.0" encoding="UTF-8" standalone="no"?><!DOCTYPE svg PUBLIC "-//W3C//DTD SVG 1.1//EN" "http://www.w3.org/Graphics/SVG/1.1/DTD/svg11.dtd"><svg width="100%" height="100%" viewBox="0 0 72 72" version="1.1" xmlns="http://www.w3.org/2000/svg" xmlns:xlink="http://www.w3.org/1999/xlink" xml:space="preserve" xmlns:serif="http://www.serif.com/" style="fill-rule:evenodd;clip-rule:evenodd;stroke-linejoin:round;stroke-miterlimit:2;"><g><path d="M14.831,12.989l0,20.826l0.596,0l0,-10.22l14.987,0l0,10.22l0.596,0l0,-20.826l-0.596,0l0,10.011l-14.987,0l0,-10.011l-0.596,0Z" style="fill:#fff;"/><path d="M37.356,32.474c-0.417,0 -0.775,0.358 -0.775,0.775c0,0.417 0.358,0.775 0.775,0.775c0.417,0 0.775,-0.358 0.775,-0.775c0,-0.417 -0.358,-0.775 -0.775,-0.775Z" style="fill:#fff;"/><path d="M41.438,12.989l7.21,10.041l-7.776,10.786l0.715,0l7.419,-10.309l7.449,10.309l0.715,0l-7.806,-10.786l7.24,-10.041l-0.715,0l-6.883,9.534l-6.853,-9.534l-0.715,0Z" style="fill:#fff;"/></g><g><path d="M8.31,50.881c-1.12,0 -2.15,-0.179 -3.088,-0.537c-0.938,-0.358 -1.755,-0.867 -2.45,-1.529c-0.695,-0.661 -1.235,-1.438 -1.62,-2.329c-0.385,-0.891 -0.577,-1.87 -0.577,-2.936c0,-1.066 0.192,-2.045 0.577,-2.936c0.385,-0.891 0.928,-1.667 1.63,-2.329c0.702,-0.661 1.525,-1.171 2.47,-1.529c0.945,-0.358 1.984,-0.537 3.118,-0.537c1.255,0 2.386,0.209 3.392,0.628c1.006,0.418 1.853,1.026 2.541,1.822l-2.106,1.944c-0.513,-0.54 -1.073,-0.942 -1.681,-1.205c-0.607,-0.263 -1.269,-0.395 -1.984,-0.395c-0.688,0 -1.316,0.108 -1.883,0.324c-0.567,0.216 -1.056,0.526 -1.468,0.931c-0.412,0.405 -0.729,0.884 -0.952,1.438c-0.223,0.553 -0.334,1.168 -0.334,1.843c0,0.661 0.111,1.269 0.334,1.822c0.223,0.553 0.54,1.036 0.952,1.448c0.412,0.412 0.898,0.726 1.458,0.942c0.56,0.216 1.178,0.324 1.853,0.324c0.648,0 1.279,-0.105 1.893,-0.314c0.614,-0.209 0.078,0.109 0.658,-0.39l2.997,1.696c-0.769,0.58 -1.664,1.026 -2.683,1.336c-1.019,0.31 -2.035,0.466 -3.047,0.466Zm5.73,-1.802l-2.997,-1.696l0,-4.054l2.997,0l0,5.751Z" style="fill:#fff;"/><path d="M15.215,50.638l6.318,-14.174l3.24,0l6.338,14.174l-3.442,0l-4.537,-10.953l-4.555,10.953l-3.361,0Zm4.624,-3.037l1.036,-2.491l4.503,0l1.032,2.491l-6.57,0Z" style="fill:#fff;"/><path d="M32.588,50.638l0,-14.174l3.28,0l0,11.501l7.107,0l0,2.673l-10.388,0Z" style="fill:#fff;"/><path d="M44.818,50.638l0,-14.174l3.28,0l0,11.501l7.107,0l0,2.673l-10.388,0Z" style="fill:#fff;"/><path d="M63.69,50.881c-1.12,0 -2.157,-0.182 -3.108,-0.547c-0.952,-0.364 -1.775,-0.877 -2.47,-1.539c-0.695,-0.661 -1.235,-1.438 -1.62,-2.329c-0.385,-0.891 -0.577,-1.863 -0.577,-2.916c0,-1.053 0.192,-2.025 0.577,-2.916c0.385,-0.891 0.928,-1.667 1.63,-2.329c0.702,-0.661 1.525,-1.174 2.47,-1.539c0.945,-0.364 1.971,-0.547 3.078,-0.547c1.12,0 2.15,0.182 3.088,0.547c0.938,0.364 1.755,0.877 2.45,1.539c0.695,0.661 1.239,1.434 1.63,2.318c0.391,0.884 0.587,1.86 0.587,2.926c0,1.053 -0.196,2.028 -0.587,2.926c-0.391,0.898 -0.935,1.674 -1.63,2.329c-0.695,0.655 -1.512,1.164 -2.45,1.529c-0.938,0.364 -1.961,0.547 -3.068,0.547Zm-0.02,-2.794c0.634,0 1.218,-0.108 1.752,-0.324c0.533,-0.216 1.002,-0.526 1.407,-0.931c0.405,-0.405 0.719,-0.884 0.942,-1.438c0.223,-0.553 0.334,-1.168 0.334,-1.843c0,-0.675 -0.111,-1.289 -0.334,-1.843c-0.223,-0.553 -0.533,-1.033 -0.931,-1.438c-0.398,-0.405 -0.867,-0.715 -1.407,-0.931c-0.54,-0.216 -1.127,-0.324 -1.762,-0.324c-0.634,0 -1.218,0.108 -1.752,0.324c-0.533,0.216 -1.002,0.526 -1.407,0.931c-0.405,0.405 -0.719,0.884 -0.942,1.438c-0.223,0.553 -0.334,1.168 -0.334,1.843c0,0.661 0.111,1.272 0.334,1.833c0.223,0.56 0.533,1.043 0.931,1.448c0.398,0.405 0.867,0.715 1.407,0.931c0.54,0.216 1.127,0.324 1.762,0.324Z" style="fill:#fff;"/></g></svg>