<?xml version="1.0" encoding="UTF-8" standalone="no"?><!DOCTYPE svg PUBLIC "-//W3C//DTD SVG 1.1//EN" "http://www.w3.org/Graphics/SVG/1.1/DTD/svg11.dtd"><svg width="100%" height="100%" viewBox="0 0 810 119" version="1.1" xmlns="http://www.w3.org/2000/svg" xmlns:xlink="http://www.w3.org/1999/xlink" xml:space="preserve" xmlns:serif="http://www.serif.com/" style="fill-rule:evenodd;clip-rule:evenodd;stroke-linejoin:round;stroke-miterlimit:2;"><g><path d="M-0,2.125l0,114.268l3.269,0l0,-56.071l82.227,0l0,56.071l3.269,0l0,-114.268l-3.269,0l0,54.927l-82.227,0l0,-54.927l-3.269,0Z" style="fill:#fff;fill-rule:nonzero;"/><path d="M123.586,109.037c-2.289,0 -4.25,1.962 -4.25,4.25c0,2.289 1.962,4.25 4.25,4.25c2.289,0 4.25,-1.962 4.25,-4.25c0,-2.289 -1.962,-4.25 -4.25,-4.25Z" style="fill:#fff;fill-rule:nonzero;"/><path d="M145.982,2.125l39.561,55.091l-42.667,59.177l3.923,0l40.705,-56.562l40.868,56.562l3.923,0l-42.83,-59.177l39.724,-55.091l-3.923,0l-37.762,52.312l-37.599,-52.312l-3.923,0Z" style="fill:#fff;fill-rule:nonzero;"/></g><path d="M299.946,118.355c-9.046,0 -17.355,-1.444 -24.93,-4.332c-7.574,-2.888 -14.168,-7.002 -19.78,-12.342c-5.613,-5.34 -9.972,-11.607 -13.078,-18.799c-3.106,-7.193 -4.659,-15.094 -4.659,-23.704c0,-8.61 1.553,-16.511 4.659,-23.704c3.106,-7.193 7.493,-13.459 13.16,-18.799c5.667,-5.34 12.315,-9.454 19.944,-12.342c7.629,-2.888 16.02,-4.332 25.175,-4.332c10.135,-0 19.263,1.689 27.382,5.068c8.119,3.378 14.958,8.283 20.516,14.713l-17.001,15.693c-4.141,-4.359 -8.664,-7.602 -13.568,-9.727c-4.904,-2.125 -10.244,-3.188 -16.02,-3.188c-5.558,0 -10.626,0.872 -15.203,2.616c-4.577,1.744 -8.528,4.25 -11.852,7.52c-3.324,3.269 -5.885,7.138 -7.683,11.607c-1.798,4.468 -2.697,9.427 -2.697,14.876c0,5.34 0.899,10.244 2.697,14.713c1.798,4.468 4.359,8.364 7.683,11.688c3.324,3.324 7.247,5.858 11.77,7.602c4.523,1.744 9.509,2.616 14.958,2.616c5.231,0 10.326,-0.845 15.285,-2.534c4.959,-1.689 9.781,-4.55 14.467,-8.582l15.04,19.126c-6.212,4.686 -13.432,8.283 -21.66,10.789c-8.228,2.507 -16.429,3.76 -24.603,3.76Zm46.263,-14.549l-24.194,-3.433l0,-42.994l24.194,0l0,46.427Z" style="fill:#fff;fill-rule:nonzero;"/><path d="M355.691,116.393l51.004,-114.432l26.156,0l51.167,114.432l-27.791,0l-41.849,-101.027l10.462,0l-42.013,101.027l-27.137,0Zm25.502,-24.521l7.029,-20.107l58.851,0l7.193,20.107l-73.073,0Z" style="fill:#fff;fill-rule:nonzero;"/><path d="M495.951,116.393l0,-114.432l26.483,0l0,92.853l57.379,0l0,21.579l-83.862,0Z" style="fill:#fff;fill-rule:nonzero;"/><path d="M594.689,116.393l0,-114.432l26.483,0l0,92.853l57.379,0l0,21.579l-83.862,0Z" style="fill:#fff;fill-rule:nonzero;"/><path d="M747.047,118.355c-9.046,0 -17.41,-1.471 -25.093,-4.414c-7.683,-2.943 -14.331,-7.084 -19.944,-12.424c-5.613,-5.34 -9.972,-11.607 -13.078,-18.799c-3.106,-7.193 -4.659,-15.04 -4.659,-23.54c0,-8.501 1.553,-16.347 4.659,-23.54c3.106,-7.193 7.493,-13.459 13.16,-18.799c5.667,-5.34 12.315,-9.481 19.944,-12.424c7.629,-2.943 15.911,-4.414 24.848,-4.414c9.046,-0 17.355,1.471 24.93,4.414c7.574,2.943 14.168,7.084 19.78,12.424c5.613,5.34 9.999,11.579 13.16,18.718c3.16,7.138 4.741,15.012 4.741,23.622c0,8.501 -1.58,16.375 -4.741,23.622c-3.16,7.247 -7.547,13.514 -13.16,18.799c-5.613,5.286 -12.206,9.4 -19.78,12.342c-7.574,2.943 -15.83,4.414 -24.766,4.414Zm-0.163,-22.559c5.122,0 9.836,-0.872 14.14,-2.616c4.305,-1.744 8.092,-4.25 11.361,-7.52c3.269,-3.269 5.803,-7.138 7.602,-11.607c1.798,-4.468 2.697,-9.427 2.697,-14.876c0,-5.449 -0.899,-10.408 -2.697,-14.876c-1.798,-4.468 -4.305,-8.337 -7.52,-11.607c-3.215,-3.269 -7.002,-5.776 -11.361,-7.52c-4.359,-1.744 -9.1,-2.616 -14.222,-2.616c-5.122,0 -9.836,0.872 -14.14,2.616c-4.305,1.744 -8.092,4.25 -11.361,7.52c-3.269,3.269 -5.803,7.138 -7.602,11.607c-1.798,4.468 -2.697,9.427 -2.697,14.876c0,5.34 0.899,10.272 2.697,14.794c1.798,4.523 4.305,8.419 7.52,11.688c3.215,3.269 7.002,5.776 11.361,7.52c4.359,1.744 9.1,2.616 14.222,2.616Z" style="fill:#fff;fill-rule:nonzero;"/></svg>